HIERARCHY
ROOT newVegas:Hips
{
	OFFSET 0.000000 96.479958 0.000000
	CHANNELS 6 Xposition Yposition Zposition Xrotation Yrotation Zrotation
	JOINT newVegas:Pelvis
	{
		OFFSET 0.000000 0.000000 0.000000
		CHANNELS 3 Xrotation Yrotation Zrotation
		JOINT newVegas:LeftUpLeg
		{
			OFFSET 18.735201 -5.666702 -4.541200
			CHANNELS 3 Xrotation Yrotation Zrotation
			JOINT newVegas:LeftLeg
			{
				OFFSET -0.021200 -31.938179 0.493100
				CHANNELS 3 Xrotation Yrotation Zrotation
				JOINT newVegas:LeftFoot
				{
					OFFSET 0.021200 -31.938179 -4.336299
					CHANNELS 3 Xrotation Yrotation Zrotation
					JOINT newVegas:LeftToeBase
					{
						OFFSET 0.943001 -26.722000 15.023500
						CHANNELS 3 Xrotation Yrotation Zrotation
						End Site
						{
							OFFSET 0.000000 30.670183 0.000000
						}
					}
				}
				JOINT newVegas:Left_PantLeg
				{
					OFFSET 0.663870 -9.044666 -1.108900
					CHANNELS 3 Xrotation Yrotation Zrotation
					End Site
					{
						OFFSET 1.415995 20.635357 0.000000
					}
				}
			}
		}
		JOINT newVegas:RightUpLeg
		{
			OFFSET -18.735201 -5.666702 -4.541200
			CHANNELS 3 Xrotation Yrotation Zrotation
			JOINT newVegas:RightLeg
			{
				OFFSET 0.018946 -31.938133 0.493100
				CHANNELS 3 Xrotation Yrotation Zrotation
				JOINT newVegas:RightFoot
				{
					OFFSET -0.018946 -31.938126 -4.336299
					CHANNELS 3 Xrotation Yrotation Zrotation
					JOINT newVegas:RightToeBase
					{
						OFFSET -0.943001 -26.722004 15.023500
						CHANNELS 3 Xrotation Yrotation Zrotation
						End Site
						{
							OFFSET 0.000000 30.670187 0.000000
						}
					}
				}
				JOINT newVegas:Right_PantLeg
				{
					OFFSET -0.661674 -9.044716 -1.108900
					CHANNELS 3 Xrotation Yrotation Zrotation
					End Site
					{
						OFFSET -1.415958 20.635269 0.000000
					}
				}
			}
		}
	}
	JOINT newVegas:Spine
	{
		OFFSET 0.000000 10.199997 -0.299500
		CHANNELS 3 Xrotation Yrotation Zrotation
		JOINT newVegas:Spine1
		{
			OFFSET 0.000000 11.900002 -1.516600
			CHANNELS 3 Xrotation Yrotation Zrotation
			JOINT newVegas:Spine2
			{
				OFFSET 0.000000 13.600006 -2.842500
				CHANNELS 3 Xrotation Yrotation Zrotation
				JOINT newVegas:Neck
				{
					OFFSET 0.000000 9.624100 -2.890100
					CHANNELS 3 Xrotation Yrotation Zrotation
					JOINT newVegas:Head
					{
						OFFSET 0.000000 14.068802 -1.351900
						CHANNELS 3 Xrotation Yrotation Zrotation
						JOINT newVegas:Hair_Back
						{
							OFFSET 0.000000 3.231903 -17.524799
							CHANNELS 3 Xrotation Yrotation Zrotation
							End Site
							{
								OFFSET 0.000000 19.849884 0.000000
							}
						}
						JOINT newVegas:Hair_Front
						{
							OFFSET 0.000000 31.260406 4.573800
							CHANNELS 3 Xrotation Yrotation Zrotation
							JOINT newVegas:Hair_Front1
							{
								OFFSET 0.000000 2.284103 11.993300
								CHANNELS 3 Xrotation Yrotation Zrotation
								JOINT newVegas:Hair_Front2
								{
									OFFSET 0.000000 2.284103 11.993300
									CHANNELS 3 Xrotation Yrotation Zrotation
									End Site
									{
										OFFSET 0.000000 12.208862 0.000000
									}
								}
							}
						}
						JOINT newVegas:Jowel
						{
							OFFSET 0.000000 -7.458206 6.864100
							CHANNELS 3 Xrotation Yrotation Zrotation
							End Site
							{
								OFFSET 0.000000 19.849884 0.000000
							}
						}
					}
				}
				JOINT newVegas:LeftShoulder
				{
					OFFSET 15.263000 10.923401 -0.547700
					CHANNELS 3 Xrotation Yrotation Zrotation
					JOINT newVegas:LeftArm
					{
						OFFSET 25.438599 -2.830597 -13.032500
						CHANNELS 3 Xrotation Yrotation Zrotation
						JOINT newVegas:LeftForeArm
						{
							OFFSET 29.960503 0.000000 0.000000
							CHANNELS 3 Xrotation Yrotation Zrotation
							JOINT newVegas:LeftHand
							{
								OFFSET 27.849251 0.000000 0.000000
								CHANNELS 3 Xrotation Yrotation Zrotation
								JOINT newVegas:LeftHandThumb1
								{
									OFFSET 4.487587 -3.305161 6.305391
									CHANNELS 3 Xrotation Yrotation Zrotation
									JOINT newVegas:LeftHandThumb2
									{
										OFFSET 5.480453 -3.164139 3.164143
										CHANNELS 3 Xrotation Yrotation Zrotation
										JOINT newVegas:LeftHandThumb3
										{
											OFFSET 5.159721 -2.978973 2.978967
											CHANNELS 3 Xrotation Yrotation Zrotation
											End Site
											{
												OFFSET 2.494507 5.926697 1.738678
											}
										}
									}
								}
								JOINT newVegas:LeftHandIndex1
								{
									OFFSET 18.578728 -0.527832 5.208049
									CHANNELS 3 Xrotation Yrotation Zrotation
									JOINT newVegas:LeftHandIndex2
									{
										OFFSET 3.192009 0.000000 0.000000
										CHANNELS 3 Xrotation Yrotation Zrotation
										JOINT newVegas:LeftHandIndex3
										{
											OFFSET 3.835129 0.000000 0.000000
											CHANNELS 3 Xrotation Yrotation Zrotation
											End Site
											{
												OFFSET -0.034599 3.816971 0.371180
											}
										}
									}
								}
								JOINT newVegas:LeftHandMiddle1
								{
									OFFSET 18.476105 0.000000 0.000000
									CHANNELS 3 Xrotation Yrotation Zrotation
									JOINT newVegas:LeftHandMiddle2
									{
										OFFSET 3.324875 0.000000 0.000000
										CHANNELS 3 Xrotation Yrotation Zrotation
										JOINT newVegas:LeftHandMiddle3
										{
											OFFSET 4.596550 0.000000 0.000000
											CHANNELS 3 Xrotation Yrotation Zrotation
											End Site
											{
												OFFSET 0.057701 4.578827 0.399218
											}
										}
									}
								}
								JOINT newVegas:LeftHandRing1
								{
									OFFSET 17.732719 0.121887 -4.201567
									CHANNELS 3 Xrotation Yrotation Zrotation
									JOINT newVegas:LeftHandRing2
									{
										OFFSET 2.733170 0.000000 0.000000
										CHANNELS 3 Xrotation Yrotation Zrotation
										JOINT newVegas:LeftHandRing3
										{
											OFFSET 3.178268 0.000000 0.000000
											CHANNELS 3 Xrotation Yrotation Zrotation
											End Site
											{
												OFFSET 0.119102 3.170624 0.185394
											}
										}
									}
								}
								JOINT newVegas:LeftHandPinky1
								{
									OFFSET 15.989624 -0.606689 -7.535461
									CHANNELS 3 Xrotation Yrotation Zrotation
									JOINT newVegas:LeftHandPinky2
									{
										OFFSET 2.538986 0.000000 0.000000
										CHANNELS 3 Xrotation Yrotation Zrotation
										JOINT newVegas:LeftHandPinky3
										{
											OFFSET 2.593102 0.000000 0.000000
											CHANNELS 3 Xrotation Yrotation Zrotation
											End Site
											{
												OFFSET -0.150902 2.584198 0.152708
											}
										}
									}
								}
							}
							JOINT newVegas:Left_Sleeve
							{
								OFFSET 0.267448 -0.649796 0.577675
								CHANNELS 3 Xrotation Yrotation Zrotation
								End Site
								{
									OFFSET 0.000000 15.991241 0.000000
								}
							}
							JOINT newVegas:Left_CapeC
							{
								OFFSET 15.715958 -8.608795 -6.935905
								CHANNELS 3 Xrotation Yrotation Zrotation
								JOINT newVegas:Left_CapeC1
								{
									OFFSET 0.000000 -8.688499 0.000000
									CHANNELS 3 Xrotation Yrotation Zrotation
									End Site
									{
										OFFSET 0.000000 8.688499 0.000000
									}
								}
							}
						}
						JOINT newVegas:Left_CapeB
						{
							OFFSET 26.118385 -8.608795 -7.079235
							CHANNELS 3 Xrotation Yrotation Zrotation
							JOINT newVegas:Left_CapeB1
							{
								OFFSET 0.000000 -8.688499 0.000000
								CHANNELS 3 Xrotation Yrotation Zrotation
								End Site
								{
									OFFSET 0.000000 8.688499 0.000000
								}
							}
						}
						JOINT newVegas:Left_CapeA
						{
							OFFSET 5.115639 -8.608795 -10.395809
							CHANNELS 3 Xrotation Yrotation Zrotation
							JOINT newVegas:Left_CapeA1
							{
								OFFSET 0.000000 -8.688499 0.000000
								CHANNELS 3 Xrotation Yrotation Zrotation
								End Site
								{
									OFFSET 0.000000 8.688499 0.000000
								}
							}
						}
					}
				}
				JOINT newVegas:RightShoulder
				{
					OFFSET -15.263000 10.923401 -0.547700
					CHANNELS 3 Xrotation Yrotation Zrotation
					JOINT newVegas:RightArm
					{
						OFFSET -25.438599 -2.830597 -13.032500
						CHANNELS 3 Xrotation Yrotation Zrotation
						JOINT newVegas:RightForeArm
						{
							OFFSET -29.960503 0.000000 0.000000
							CHANNELS 3 Xrotation Yrotation Zrotation
							JOINT newVegas:RightHand
							{
								OFFSET -27.849251 0.000000 0.000000
								CHANNELS 3 Xrotation Yrotation Zrotation
								JOINT newVegas:RightHandThumb1
								{
									OFFSET -4.487587 -3.305161 6.305391
									CHANNELS 3 Xrotation Yrotation Zrotation
									JOINT newVegas:RightHandThumb2
									{
										OFFSET -5.480453 -3.164139 3.164143
										CHANNELS 3 Xrotation Yrotation Zrotation
										JOINT newVegas:RightHandThumb3
										{
											OFFSET -5.159721 -2.978973 2.978967
											CHANNELS 3 Xrotation Yrotation Zrotation
											End Site
											{
												OFFSET -2.494507 5.926697 1.738678
											}
										}
									}
								}
								JOINT newVegas:RightHandIndex1
								{
									OFFSET -18.578728 -0.527832 5.208049
									CHANNELS 3 Xrotation Yrotation Zrotation
									JOINT newVegas:RightHandIndex2
									{
										OFFSET -3.192009 0.000000 0.000000
										CHANNELS 3 Xrotation Yrotation Zrotation
										JOINT newVegas:RightHandIndex3
										{
											OFFSET -3.835129 0.000000 0.000000
											CHANNELS 3 Xrotation Yrotation Zrotation
											End Site
											{
												OFFSET 0.034599 3.816971 0.371180
											}
										}
									}
								}
								JOINT newVegas:RightHandMiddle1
								{
									OFFSET -18.476105 0.000000 0.000000
									CHANNELS 3 Xrotation Yrotation Zrotation
									JOINT newVegas:RightHandMiddle2
									{
										OFFSET -3.324875 0.000000 0.000000
										CHANNELS 3 Xrotation Yrotation Zrotation
										JOINT newVegas:RightHandMiddle3
										{
											OFFSET -4.596550 0.000000 0.000000
											CHANNELS 3 Xrotation Yrotation Zrotation
											End Site
											{
												OFFSET -0.057701 4.578827 0.399218
											}
										}
									}
								}
								JOINT newVegas:RightHandRing1
								{
									OFFSET -17.732719 0.121887 -4.201567
									CHANNELS 3 Xrotation Yrotation Zrotation
									JOINT newVegas:RightHandRing2
									{
										OFFSET -2.733170 0.000000 0.000000
										CHANNELS 3 Xrotation Yrotation Zrotation
										JOINT newVegas:RightHandRing3
										{
											OFFSET -3.178268 0.000000 0.000000
											CHANNELS 3 Xrotation Yrotation Zrotation
											End Site
											{
												OFFSET -0.119102 3.170624 0.185394
											}
										}
									}
								}
								JOINT newVegas:RightHandPinky1
								{
									OFFSET -15.989624 -0.606689 -7.535461
									CHANNELS 3 Xrotation Yrotation Zrotation
									JOINT newVegas:RightHandPinky2
									{
										OFFSET -2.538986 0.000000 0.000000
										CHANNELS 3 Xrotation Yrotation Zrotation
										JOINT newVegas:RightHandPinky3
										{
											OFFSET -2.593102 0.000000 0.000000
											CHANNELS 3 Xrotation Yrotation Zrotation
											End Site
											{
												OFFSET 0.150902 2.584198 0.152708
											}
										}
									}
								}
							}
							JOINT newVegas:Right_CapeC
							{
								OFFSET -15.715958 -8.608795 -6.935905
								CHANNELS 3 Xrotation Yrotation Zrotation
								JOINT newVegas:Right_CapeC1
								{
									OFFSET 0.000000 -8.688499 0.000000
									CHANNELS 3 Xrotation Yrotation Zrotation
									End Site
									{
										OFFSET 0.000000 8.688499 0.000000
									}
								}
							}
							JOINT newVegas:Right_Sleeve
							{
								OFFSET -0.267448 -0.649994 0.577675
								CHANNELS 3 Xrotation Yrotation Zrotation
								End Site
								{
									OFFSET 0.000000 15.991302 0.000000
								}
							}
						}
						JOINT newVegas:Right_CapeA
						{
							OFFSET -5.115540 -8.608795 -10.395824
							CHANNELS 3 Xrotation Yrotation Zrotation
							JOINT newVegas:Right_CapeA1
							{
								OFFSET 0.000000 -8.688499 0.000000
								CHANNELS 3 Xrotation Yrotation Zrotation
								End Site
								{
									OFFSET 0.000000 8.688499 0.000000
								}
							}
						}
						JOINT newVegas:Right_CapeB
						{
							OFFSET -26.118187 -8.608795 -7.079266
							CHANNELS 3 Xrotation Yrotation Zrotation
							JOINT newVegas:Right_CapeB1
							{
								OFFSET 0.000000 -8.688499 0.000000
								CHANNELS 3 Xrotation Yrotation Zrotation
								End Site
								{
									OFFSET 0.000000 8.688499 0.000000
								}
							}
						}
					}
				}
				JOINT newVegas:Left_Collar
				{
					OFFSET 18.625099 8.655502 8.828100
					CHANNELS 3 Xrotation Yrotation Zrotation
					JOINT newVegas:Left_Collar1
					{
						OFFSET 14.783401 10.540405 -1.259500
						CHANNELS 3 Xrotation Yrotation Zrotation
						End Site
						{
							OFFSET 0.000000 18.199875 0.000000
						}
					}
				}
				JOINT newVegas:Collar_Back
				{
					OFFSET 0.000000 15.630707 -20.132601
					CHANNELS 3 Xrotation Yrotation Zrotation
					End Site
					{
						OFFSET 0.000000 22.523010 0.000000
					}
				}
				JOINT newVegas:Left_Peck
				{
					OFFSET 17.239599 -5.132599 25.482599
					CHANNELS 3 Xrotation Yrotation Zrotation
					End Site
					{
						OFFSET 0.000000 22.523010 0.000000
					}
				}
				JOINT newVegas:Right_Peck
				{
					OFFSET -17.239599 -5.132202 25.482599
					CHANNELS 3 Xrotation Yrotation Zrotation
					End Site
					{
						OFFSET 0.000000 22.523010 0.000000
					}
				}
				JOINT newVegas:Right_Collar
				{
					OFFSET -18.625099 8.655792 8.828100
					CHANNELS 3 Xrotation Yrotation Zrotation
					JOINT newVegas:Right_Collar1
					{
						OFFSET -14.783401 10.539993 -1.259500
						CHANNELS 3 Xrotation Yrotation Zrotation
						End Site
						{
							OFFSET 0.000000 18.199631 0.000000
						}
					}
				}
			}
		}
		JOINT newVegas:Belly
		{
			OFFSET 0.000000 -6.540398 9.014299
			CHANNELS 3 Xrotation Yrotation Zrotation
			End Site
			{
				OFFSET 0.000000 11.566666 0.000000
			}
		}
	}
	JOINT newVegas:ElvisFacialAnim_Joint
	{
		OFFSET 1.000000 -95.330101 -8.825800
		CHANNELS 3 Xrotation Yrotation Zrotation
		End Site
		{
			OFFSET 0.000000 35.315800 0.000000
		}
	}
}
MOTION
Frames: 4
Frame Time: 0.033333
-3.916301 83.274147 2.332663 3.004776 -58.203218 6.441630 -0.000000 0.000000 -0.000000 -38.301030 6.320297 29.635661 47.031405 -9.811913 -10.643245 -10.044764 -1.887244 -11.913422 0.000000 0.000001 0.000000 -0.000001 0.000004 0.000001 -34.547797 -3.821192 -30.691954 55.034710 4.454166 -7.825857 -22.924953 0.235560 25.815907 0.000000 0.000000 -0.000000 0.000001 0.000002 -0.000000 11.191374 0.081154 -2.660815 8.434584 0.027692 -5.592319 8.457045 0.027884 -5.591869 -3.775801 5.323473 1.581282 -3.775818 5.323462 1.581283 0.000002 -0.000000 0.000000 -3.775875 5.323448 1.581297 -3.775657 5.323487 1.581268 0.000002 -0.000001 0.000000 0.000002 -0.000000 -0.000001 -6.221646 -11.503808 -4.023756 -23.062238 9.568436 -36.639676 0.046048 -43.168920 -0.011202 22.743835 -5.685953 15.979351 -1.064219 -7.954948 8.490075 2.373359 19.986105 -2.038323 0.000000 0.000003 -0.000008 13.340870 -1.006664 10.682272 -0.167585 0.303329 -31.105668 -0.000001 0.000000 -0.000002 8.495433 -0.329589 -0.915328 0.231521 0.661246 -29.901834 0.000001 0.000001 0.000001 6.111747 3.150903 -16.210961 0.047095 0.322437 -30.125485 0.000000 -0.000001 -0.000001 -5.636025 7.709840 -13.878642 0.224335 0.276512 -46.588338 0.000000 -0.000002 0.000000 0.000002 0.000003 -0.000000 0.000002 0.000003 -0.000000 0.000001 0.000003 0.000000 0.000001 -0.000001 -0.000001 0.000002 -0.000000 -0.000003 0.000001 -0.000001 -0.000001 0.000001 0.000000 -0.000000 -5.488226 10.658267 2.466469 -41.473872 -26.755588 30.079057 24.955544 111.862960 -23.308579 -8.702516 12.423088 -9.801856 0.264964 10.061132 -10.888465 1.383809 -17.412854 3.016231 0.000003 0.000001 -0.000000 19.443619 11.174448 -13.340220 -0.118663 -0.322692 18.035589 0.000000 -0.000003 0.000001 4.320466 2.436957 -4.811727 0.349112 -0.461219 26.890316 -0.000001 -0.000001 -0.000001 -7.005628 -10.695144 5.719839 0.111869 -0.089207 26.155854 -0.000001 0.000002 0.000001 -19.433527 -20.238228 5.987857 0.223767 -0.085749 36.844605 -0.000003 0.000002 -0.000002 0.000000 -0.000000 -0.000001 -0.000001 0.000001 -0.000001 -0.000001 0.000001 0.000000 -0.000000 0.000003 0.000002 -0.000000 0.000004 0.000001 -0.000000 0.000003 0.000002 -0.000000 0.000004 0.000002 -0.000002 -0.000001 -0.000001 -0.000002 -0.000001 -0.000001 -0.000002 -0.000001 -0.000001 -0.000002 -0.000001 -0.000001 -0.000002 -0.000001 -0.000001 -0.000002 -0.000001 -0.000001 -0.000002 -0.000001 -0.000001 -0.000001 0.000001 -0.000000 -0.000000 0.000000 -0.000000 
-3.605828 83.191032 1.959312 1.764084 -56.827980 3.749079 -0.000000 0.000000 0.000000 -40.212349 4.801027 30.870222 48.279858 -12.392891 -10.109852 -9.543647 -0.902115 -11.515806 0.000000 0.000001 -0.000000 0.000000 -0.000000 0.000000 -32.917578 -5.080759 -28.650629 54.699112 6.354109 -7.802215 -22.677811 -2.630944 24.473270 0.000000 0.000003 -0.000000 0.000003 0.000000 0.000000 10.947686 -0.383350 -2.892666 7.269569 -0.704946 -5.263870 7.301834 -0.653735 -5.275856 -2.987705 5.245629 1.831155 -2.987725 5.245649 1.831155 0.000001 -0.000003 0.000000 -2.987716 5.245644 1.831151 -2.987650 5.245678 1.831144 0.000000 -0.000000 0.000001 0.000001 -0.000003 0.000001 -6.670229 -11.725597 -5.507834 -24.094148 5.997286 -35.048139 4.593888 -43.045594 2.877333 17.784942 -0.197563 14.319114 -1.001871 -7.613433 8.618808 2.531825 20.427484 -1.875002 0.000000 0.000000 -0.000004 13.342427 -1.008431 10.167877 -0.166993 0.303738 -31.620002 0.000002 -0.000000 0.000002 8.487129 -0.324391 -1.429619 0.234570 0.662951 -30.416280 0.000001 0.000002 -0.000004 6.106485 3.156953 -16.724751 0.047313 0.325911 -30.639860 -0.000001 -0.000001 0.000001 -5.638187 7.712982 -14.391492 0.226377 0.278128 -47.102767 0.000000 0.000000 -0.000000 -0.000000 0.000001 -0.000000 -0.000000 0.000001 -0.000000 -0.000000 0.000001 0.000000 -0.000003 -0.000001 -0.000000 -0.000002 -0.000001 -0.000003 -0.000003 -0.000001 -0.000000 -0.000004 -0.000001 -0.000000 -5.478999 9.695803 2.112062 -40.812252 -24.168783 28.493990 24.228308 108.673822 -22.479151 -3.554497 9.359004 -12.468178 0.498818 8.600125 -11.280864 1.857496 -18.720171 2.495464 0.000001 -0.000002 -0.000001 19.433550 11.155774 -11.806858 -0.117212 -0.323945 19.571123 0.000000 0.000001 -0.000004 4.308657 2.422177 -3.275206 0.357293 -0.466416 28.425784 0.000001 -0.000002 -0.000002 -6.979217 -10.689514 7.255705 0.112324 -0.099762 27.691315 0.000003 -0.000001 -0.000000 -19.386490 -20.210298 7.529966 0.228565 -0.090965 38.380069 -0.000001 0.000003 -0.000001 0.000002 -0.000000 0.000002 0.000002 -0.000000 0.000002 0.000002 -0.000000 0.000002 0.000001 0.000003 0.000003 0.000001 0.000004 0.000001 0.000001 0.000003 0.000003 0.000001 0.000004 0.000003 0.000002 0.000001 -0.000001 0.000002 0.000001 -0.000001 0.000002 0.000001 -0.000001 0.000002 0.000001 -0.000001 0.000002 0.000001 -0.000001 0.000002 0.000001 -0.000001 0.000002 0.000001 -0.000001 -0.000001 -0.000002 0.000000 -0.000000 0.000000 0.000000 
-3.430675 82.834389 1.423995 1.054373 -55.635927 1.659972 0.000000 -0.000001 -0.000000 -42.120639 2.716211 32.203475 50.275844 -11.852601 -9.539646 -9.206864 -2.624621 -12.162917 0.000000 -0.000003 0.000000 -0.000000 -0.000005 0.000001 -31.555549 -5.753959 -26.143456 55.016928 4.643706 -8.172251 -23.175670 -4.019481 24.670978 0.000000 0.000001 0.000000 -0.000002 -0.000001 -0.000002 10.356612 -1.194957 -3.239065 4.956670 -2.018438 -4.590233 5.006172 -1.902345 -4.614702 -1.352287 5.048327 2.377880 -1.352291 5.048320 2.377890 0.000001 0.000001 -0.000000 -1.352360 5.048333 2.377892 -1.352137 5.048311 2.377877 -0.000001 -0.000000 0.000000 0.000001 0.000001 -0.000000 -7.595975 -11.951176 -8.441249 -23.021086 3.525769 -31.572840 13.032326 -39.440138 7.613238 8.419167 3.429429 13.170244 -0.877533 -6.844671 8.904132 2.867170 21.360187 -1.519599 0.000001 -0.000001 -0.000006 13.345652 -1.012264 9.075491 -0.165745 0.304377 -32.712617 -0.000001 -0.000001 -0.000001 8.469694 -0.313200 -2.522083 0.241005 0.666577 -31.508851 0.000001 0.000000 -0.000002 6.095489 3.169914 -17.816367 0.047913 0.333239 -31.732407 0.000001 -0.000002 0.000002 -5.642685 7.719521 -15.481881 0.230726 0.281460 -48.195382 0.000000 -0.000005 0.000000 0.000002 0.000002 -0.000001 0.000002 0.000002 -0.000001 0.000001 0.000001 -0.000001 -0.000000 -0.000002 -0.000000 -0.000000 -0.000003 -0.000001 -0.000000 -0.000002 -0.000000 -0.000001 -0.000002 -0.000000 -5.532670 7.588019 1.355703 -41.542437 -16.963933 22.711009 9.471274 105.050939 -7.039006 -9.024078 2.139138 -13.903724 0.897977 5.744044 -12.087542 2.751351 -21.293634 1.493907 0.000003 -0.000001 0.000001 19.429115 11.137159 -8.803030 -0.114264 -0.326165 22.577286 0.000001 0.000001 -0.000001 4.287373 2.391364 -0.267762 0.368338 -0.475853 31.431930 0.000000 0.000002 0.000000 -6.960039 -10.694141 10.262043 0.113979 -0.120475 30.697390 -0.000000 -0.000001 -0.000001 -19.348348 -20.188270 10.541526 0.238033 -0.094562 41.386138 0.000000 0.000002 -0.000000 0.000000 0.000001 -0.000001 0.000000 -0.000001 -0.000000 0.000000 0.000001 -0.000000 -0.000001 0.000003 -0.000001 -0.000001 0.000003 -0.000000 -0.000001 0.000003 -0.000001 -0.000001 0.000003 0.000001 0.000001 0.000002 -0.000001 0.000001 0.000002 -0.000001 0.000001 0.000002 -0.000001 0.000001 0.000002 -0.000001 0.000001 0.000002 -0.000001 0.000001 0.000002 -0.000001 0.000001 0.000002 -0.000001 -0.000000 0.000000 0.000000 0.000000 -0.000001 -0.000000 
-5.349015 82.773262 2.235399 -0.419704 -54.366322 -0.727255 0.000000 -0.000000 -0.000000 -40.723565 1.261479 33.904390 51.278301 -14.451914 -10.058340 -11.262604 -1.589844 -12.205493 0.000000 -0.000001 -0.000000 -0.000000 -0.000004 0.000002 -26.743575 -7.342394 -24.173443 54.034241 4.996260 -8.397927 -25.421662 -6.767537 24.332279 0.000000 -0.000002 0.000000 0.000001 -0.000001 0.000001 9.643390 -1.813658 -3.549817 2.821782 -2.991145 -3.934032 2.883241 -2.875236 -3.950279 0.665870 4.530642 3.202104 0.665871 4.530655 3.202101 0.000001 -0.000001 0.000000 0.665870 4.530648 3.202107 0.665953 4.530645 3.202096 -0.000001 0.000002 -0.000000 0.000001 -0.000001 -0.000000 -8.454982 -11.825610 -11.096693 -20.115010 3.653055 -29.616844 20.235846 -35.858497 10.877554 -1.794223 4.774408 11.823856 -0.743885 -5.995124 9.216944 3.191474 22.322586 -1.153686 0.000003 -0.000000 -0.000005 13.348898 -1.016223 7.956044 -0.164468 0.305015 -33.832290 0.000000 0.000000 0.000000 8.451974 -0.301310 -3.641601 0.247742 0.670080 -32.628585 0.000001 0.000001 -0.000002 6.084524 3.183418 -18.935129 0.048648 0.340727 -32.852018 0.000001 0.000005 -0.000001 -5.647134 7.726392 -16.600259 0.235286 0.284847 -49.314980 -0.000001 -0.000002 -0.000000 -0.000000 0.000000 -0.000002 -0.000000 0.000000 -0.000002 -0.000001 0.000000 -0.000002 -0.000003 0.000000 -0.000001 -0.000003 -0.000000 -0.000004 -0.000003 0.000000 -0.000001 -0.000004 0.000001 -0.000001 -5.697632 5.333767 0.567633 -42.071913 -13.991085 14.469283 16.850147 106.165284 -12.092993 -10.068416 -3.563672 -13.218253 1.176570 3.200370 -12.891625 3.523865 -23.606239 0.617569 0.000003 -0.000003 0.000001 19.451214 11.146234 -6.117000 -0.111524 -0.332535 25.266041 -0.000000 -0.000002 -0.000002 4.259693 2.361744 2.421628 0.376716 -0.483552 34.120773 0.000001 -0.000002 -0.000000 -6.977709 -10.722399 12.949174 0.116437 -0.138467 33.386149 0.000003 0.000001 -0.000000 -19.371716 -20.209492 13.226399 0.245942 -0.099792 44.074903 -0.000003 0.000003 0.000001 -0.000002 0.000003 -0.000001 -0.000000 -0.000002 -0.000001 -0.000002 0.000003 -0.000001 -0.000001 0.000001 -0.000001 -0.000001 0.000002 -0.000001 -0.000001 0.000001 -0.000001 -0.000001 0.000002 -0.000002 0.000000 0.000001 -0.000001 0.000000 0.000001 -0.000001 0.000000 0.000001 -0.000001 0.000000 0.000001 -0.000001 0.000000 0.000001 -0.000001 0.000000 0.000001 -0.000001 0.000000 0.000001 -0.000001 0.000001 -0.000003 0.000001 0.000000 -0.000000 -0.000000 
